8_ID_stride5.mot
nRows=8
nColumns=38

name 8_ID_stride5.mot
datacolumns 38
datarows 8
range 3.0400000000 3.0750000000
endheader
time	pelvis_tilt_moment	pelvis_list_moment	pelvis_rotation_moment	pelvis_tx_force	pelvis_ty_force	pelvis_tz_force	hip_flexion_r_moment	hip_adduction_r_moment	hip_rotation_r_moment	knee_angle_r_moment	ankle_angle_r_moment	subtalar_angle_r_moment	mtp_angle_r_moment	hip_flexion_l_moment	hip_adduction_l_moment	hip_rotation_l_moment	knee_angle_l_moment	ankle_angle_l_moment	subtalar_angle_l_moment	mtp_angle_l_moment	lumbar_extension_moment	lumbar_bending_moment	lumbar_rotation_moment	arm_flex_r_moment	arm_add_r_moment	arm_rot_r_moment	elbow_flex_r_moment	pro_sup_r_moment	wrist_flex_r_moment	wrist_dev_r_moment	arm_flex_l_moment	arm_add_l_moment	arm_rot_l_moment	elbow_flex_l_moment	pro_sup_l_moment	wrist_flex_l_moment	wrist_dev_l_moment
        3.0400000000	       -8.9780480449	       -7.4880799612	        2.3865299166	      106.8524238808	      -78.1513409375	      -23.3062020038	        1.7345124646	      -45.8336764975	       21.2832642328	       -2.6041168593	     -184.0442024507	       42.5980524884	       -0.0561999020	      -11.3889620691	       -1.5722656902	       -2.3567140974	       -1.3895681614	        2.1519384281	       -0.1691734431	        0.1257729647	       16.5651598417	       10.1465632912	      -41.5152784029	       -0.7430121540	       -3.5560434380	       -4.2198149629	        4.0610673496	       -0.2170411566	       -0.3789938683	       -0.4369544929	        7.3258630848	        6.6148045934	        4.7513110198	        4.4017104698	        0.0538974000	        0.5830315734	       -0.2573256922	
        3.0450000000	      -11.2661999449	       -7.1699972271	        0.0178488676	       96.3556174613	      -80.2164258549	       -9.3787665164	        4.0382385122	      -37.1893632044	       15.9281273476	       -6.1774567674	     -166.3352626084	       37.9853200652	       -0.0632199930	      -13.0871250679	       -2.5942476825	       -2.0567186743	       -1.7175606142	        2.2236626456	       -0.2220851517	        0.1281132211	       12.8991427422	        9.3874635866	      -38.7015514788	       -0.9116848476	       -3.3675169432	       -3.9188964846	        3.5026043893	       -0.1972782227	       -0.3587342685	       -0.3824704182	        6.6919591940	        5.9951680328	        4.3636592681	        3.8661248305	        0.0540186878	        0.5332379370	       -0.2190802643	
        3.0500000000	      -12.0169715704	       -9.5428667534	       -1.2144163216	       81.0609849941	      -77.5064239384	        3.8781646063	        4.5618543167	      -30.5517922726	       12.5183800839	      -10.9692882561	     -147.6890282095	       33.6364929450	       -0.0679365881	      -14.4587661667	       -3.1485494137	       -1.7274474381	       -2.3022541709	        2.3103559438	       -0.2812625152	        0.1322847592	        9.3945107938	        8.7501898817	      -35.3592182969	       -1.0764732733	       -2.9589512008	       -3.4950020489	        2.9321479126	       -0.1744906279	       -0.3268126378	       -0.3249427752	        6.0045880548	        5.1970308088	        3.8667190506	        3.3384258619	        0.0517590094	        0.4739152159	       -0.1832997983	
        3.0550000000	      -10.3467005338	      -10.9036300828	       -1.2350862902	       62.4517151113	      -71.0152426826	       16.1510254809	        4.1799196277	      -26.0699368896	       11.5409085960	      -16.0268046810	     -129.2457051602	       29.4068582601	       -0.0675954643	      -15.3799390761	       -2.6873565813	       -1.4617147777	       -3.0269737495	        2.4105661238	       -0.3373076518	        0.1379517374	        6.6689277931	        8.6082336441	      -31.8003917140	       -1.3164732372	       -2.4152756072	       -2.9803334174	        2.3414934510	       -0.1493828324	       -0.2876082921	       -0.2645298181	        5.2499660687	        4.2511398048	        3.2954680594	        2.8183107280	        0.0479989732	        0.4087588874	       -0.1495310182	
        3.0600000000	       -8.0737802097	       -7.5569003831	       -1.8178666720	       40.4346382602	      -70.4882141180	       25.0701383975	        5.8220497353	      -21.2835435786	       10.7197318342	      -19.9268860396	     -111.9433799911	       25.1676167437	       -0.0628758267	      -15.5955330893	       -1.2998787391	       -1.3626351278	       -3.7459923836	        2.5214706961	       -0.3820081452	        0.1449177256	        5.3079734637	        8.8967926222	      -28.1582579284	       -1.6629323937	       -1.7512132135	       -2.3903998072	        1.7250098548	       -0.1223026237	       -0.2424952660	       -0.2013318763	        4.4134425951	        3.1807808591	        2.6699213499	        2.2973526932	        0.0435115863	        0.3397811362	       -0.1167024408	
        3.0650000000	       -7.5267377252	        3.7453640699	       -4.2706806357	       15.9885192124	      -75.0422725881	       29.8669255305	       11.4423502864	      -14.4881583590	        8.9380257850	      -20.9903635577	      -95.5988738157	       21.1773722032	       -0.0498529534	      -15.4461372208	        1.1569234959	       -1.3919592320	       -4.2611970230	        2.6363765089	       -0.4029973288	        0.1525670588	        5.2632798111	        9.7475121982	      -24.5330267250	       -2.1248793950	       -1.0102969800	       -1.7518856309	        1.0820985778	       -0.0937534950	       -0.1938306871	       -0.1357845477	        3.4936184443	        2.0263337793	        2.0151791455	        1.7674483643	        0.0390536701	        0.2690378428	       -0.0838258479	
        3.0700000000	       -7.8008561591	       21.6178953471	       -9.1928158861	       -8.7953911298	      -91.5341010320	       32.6979471244	       19.8592823384	       -5.0927360311	        5.3273624474	      -20.9463371824	      -79.9025986953	       17.9676550403	       -0.0276059565	      -14.6501059140	        4.4842911080	       -1.6021791894	       -4.4284187538	        2.7461830877	       -0.4054899612	        0.1601127227	        6.2977631365	       10.8784837425	      -20.9611081413	       -2.6788594214	       -0.2323929363	       -1.0892403834	        0.4213884936	       -0.0642937285	       -0.1434671035	       -0.0688375639	        2.5011504917	        0.8310828394	        1.3525787100	        1.2256462260	        0.0349385736	        0.1980972165	       -0.0503539061	
        3.0750000000	       -8.8710261775	       41.5949627435	      -15.1145662875	      -31.9227757853	     -116.8958786529	       35.4103121362	       28.1900895540	        5.5639868399	        1.0295663985	      -19.9370774131	      -64.6951856688	       15.7029913669	        0.0051274127	      -13.4373473848	        8.4464890669	       -1.9547537296	       -4.3231027696	        2.8453130400	       -0.3763223756	        0.1670141401	        8.3429617332	       11.9959238918	      -17.4447189693	       -3.2836115320	        0.5506838579	       -0.4224226824	       -0.2438056144	       -0.0344980535	       -0.0927770052	       -0.0016409499	        1.4580631516	       -0.3673274083	        0.6974136447	        0.6745848674	        0.0312036477	        0.1280048171	       -0.0162117904	
